<svg width="32" height="32" viewBox="0 0 32 32" fill="none" xmlns="http://www.w3.org/2000/svg">
<path d="M9.0962 24.0379C7.5583 24.0379 6.2624 23.7139 5.20851 23.066C4.15462 22.4102 3.35444 21.45 2.80798 20.1853C2.26933 18.9129 2 17.3476 2 15.4897C2 14.1079 2.19126 12.8901 2.57379 11.8362C2.96411 10.7745 3.50277 9.88844 4.18975 9.17804C4.87673 8.45984 5.67691 7.91728 6.59028 7.55037C7.50365 7.18346 8.48728 7 9.54117 7C10.7278 7 11.727 7.18346 12.5389 7.55037C13.3508 7.91728 14.0729 8.40129 14.7052 9.00239L12.6911 11.0868C12.1993 10.6496 11.727 10.3256 11.2742 10.1148C10.8215 9.90406 10.3062 9.79867 9.72853 9.79867C9.18207 9.79867 8.67855 9.90796 8.21796 10.1265C7.76517 10.3373 7.36704 10.673 7.02355 11.1336C6.68786 11.5864 6.42634 12.1758 6.23898 12.9018C6.05162 13.62 5.95795 14.4904 5.95795 15.5131C5.95795 16.9261 6.07114 18.0502 6.29753 18.8855C6.53173 19.7209 6.88303 20.322 7.35142 20.6889C7.81982 21.048 8.41312 21.2275 9.13133 21.2275C9.51385 21.2275 9.87295 21.1846 10.2086 21.0987C10.5443 21.005 10.8566 20.884 11.1454 20.7357V17.0237H9.10791L8.73319 14.3304H14.7755V22.3985C13.9636 22.8981 13.0893 23.2963 12.1525 23.5929C11.2235 23.8896 10.2047 24.0379 9.0962 24.0379Z" fill="#613fb1"/>
<path d="M28.2444 7.40985L29.1578 23.6398H25.8088L25.6097 16.6958C25.5941 16.0478 25.5863 15.4702 25.5863 14.9627C25.5941 14.4553 25.6058 13.9791 25.6214 13.5341C25.637 13.0813 25.6605 12.6286 25.6917 12.1758C25.7307 11.7152 25.7698 11.2156 25.8088 10.6769L23.982 20.8762H21.078L19.1107 10.6769C19.1576 11.1921 19.1966 11.6801 19.2278 12.1406C19.2669 12.5934 19.2942 13.0501 19.3098 13.5107C19.3254 13.9713 19.3371 14.467 19.3449 14.9979C19.3527 15.5209 19.3488 16.1064 19.3332 16.7543L19.2161 23.6398H15.9256L16.839 7.40985H20.7852L22.5886 17.9019L24.2982 7.40985H28.2444Z" fill="#613fb1"/>
</svg>
