<svg width="80" height="59" viewBox="0 0 80 59" fill="none" xmlns="http://www.w3.org/2000/svg">
<path d="M64.0167 2.86556L23.9633 25.9904C21.2221 27.573 20.283 31.0781 21.8656 33.8192C23.4481 36.5604 26.9532 37.4996 29.6944 35.917L69.7478 12.7921C72.4889 11.2095 73.4281 7.70443 71.8455 4.96329C70.2629 2.22214 66.7578 1.28296 64.0167 2.86556Z" fill="#A567D6"/>
<path d="M50.3069 22.8495L10.2535 45.9743C7.51239 47.557 6.5732 51.062 8.1558 53.8032C9.7384 56.5443 13.2435 57.4835 15.9846 55.9009L56.038 32.7761C58.7792 31.1935 59.7184 27.6884 58.1358 24.9472C56.5532 22.2061 53.0481 21.2669 50.3069 22.8495Z" fill="#4B0E7B"/>
</svg>
