<svg width="76" height="79" viewBox="0 0 76 79" fill="none" xmlns="http://www.w3.org/2000/svg">
<g clip-path="url(#clip0_29_87)">
<path d="M25.4202 60.8918C25.4202 61.1983 25.0677 61.4435 24.6234 61.4435C24.1177 61.4894 23.7653 61.2443 23.7653 60.8918C23.7653 60.5854 24.1177 60.3402 24.5621 60.3402C25.0218 60.2943 25.4202 60.5394 25.4202 60.8918ZM20.6548 60.2023C20.5476 60.5088 20.854 60.8612 21.3137 60.9531C21.7121 61.1064 22.1718 60.9531 22.2637 60.6467C22.3556 60.3402 22.0645 59.9878 21.6048 59.8499C21.2065 59.7426 20.7621 59.8959 20.6548 60.2023ZM27.4274 59.9418C26.9831 60.0491 26.6766 60.3402 26.7226 60.6926C26.7685 60.9991 27.1669 61.1983 27.6266 61.091C28.071 60.9838 28.3774 60.6926 28.3315 60.3862C28.2855 60.0951 27.8718 59.8959 27.4274 59.9418ZM37.5097 1.22571C16.2573 1.22571 0 17.3604 0 38.6128C0 55.6055 10.6952 70.1467 25.9718 75.2644C27.9331 75.6168 28.6226 74.4064 28.6226 73.4104C28.6226 72.4604 28.5766 67.2201 28.5766 64.0023C28.5766 64.0023 17.8508 66.3007 15.5984 59.4362C15.5984 59.4362 13.8516 54.9773 11.3387 53.8281C11.3387 53.8281 7.82984 51.4225 11.5839 51.4684C11.5839 51.4684 15.3992 51.7749 17.4984 55.4217C20.854 61.3362 26.4774 59.6354 28.6686 58.6241C29.021 56.1725 30.0169 54.4717 31.1202 53.4604C22.5548 52.5104 13.9129 51.2693 13.9129 36.5289C13.9129 32.3152 15.0774 30.2007 17.529 27.5039C17.1306 26.508 15.8282 22.4015 17.9274 17.0999C21.1298 16.1039 28.5 21.237 28.5 21.237C31.5645 20.3789 34.8589 19.9346 38.1226 19.9346C41.3863 19.9346 44.6806 20.3789 47.7452 21.237C47.7452 21.237 55.1153 16.0886 58.3177 17.0999C60.4169 22.4168 59.1145 26.508 58.7161 27.5039C61.1677 30.216 62.6694 32.3305 62.6694 36.5289C62.6694 51.3152 53.6444 52.4951 45.079 53.4604C46.4887 54.6709 47.6839 56.9693 47.6839 60.5701C47.6839 65.7338 47.6379 72.1233 47.6379 73.3797C47.6379 74.3757 48.3427 75.5862 50.2887 75.2338C65.6113 70.1467 76 55.6055 76 38.6128C76 17.3604 58.7621 1.22571 37.5097 1.22571ZM14.8935 54.0733C14.6944 54.2265 14.7403 54.5789 15.0008 54.8701C15.246 55.1152 15.5984 55.2225 15.7976 55.0233C15.9968 54.8701 15.9508 54.5176 15.6903 54.2265C15.4452 53.9814 15.0927 53.8741 14.8935 54.0733ZM13.2387 52.8322C13.1315 53.0314 13.2847 53.2765 13.5911 53.4297C13.8363 53.583 14.1427 53.537 14.25 53.3225C14.3573 53.1233 14.204 52.8781 13.8976 52.7249C13.5911 52.633 13.346 52.6789 13.2387 52.8322ZM18.2032 58.287C17.9581 58.4862 18.05 58.9459 18.4024 59.237C18.7548 59.5894 19.1992 59.6354 19.3984 59.3902C19.5976 59.191 19.5056 58.7314 19.1992 58.4402C18.8621 58.0878 18.4024 58.0418 18.2032 58.287ZM16.4565 56.0346C16.2113 56.1878 16.2113 56.5862 16.4565 56.9386C16.7016 57.291 17.1153 57.4443 17.3145 57.291C17.5597 57.0918 17.5597 56.6935 17.3145 56.341C17.1 55.9886 16.7016 55.8354 16.4565 56.0346Z" fill="white"/>
</g>
<defs>
<clipPath id="clip0_29_87">
<rect width="76" height="78.4516" fill="white"/>
</clipPath>
</defs>
</svg>
