<svg width="56" height="36" viewBox="0 0 56 36" fill="none" xmlns="http://www.w3.org/2000/svg">
<path d="M14.6241 35.816C11.4721 35.816 8.81608 35.152 6.65608 33.824C4.49608 32.48 2.85608 30.512 1.73608 27.92C0.632078 25.312 0.0800781 22.104 0.0800781 18.296C0.0800781 15.464 0.472078 12.968 1.25608 10.808C2.05608 8.632 3.16008 6.816 4.56808 5.36C5.97608 3.888 7.61608 2.776 9.48808 2.024C11.3601 1.272 13.3761 0.895996 15.5361 0.895996C17.9681 0.895996 20.0161 1.272 21.6801 2.024C23.3441 2.776 24.8241 3.768 26.1201 5L21.9921 9.272C20.9841 8.376 20.0161 7.712 19.0881 7.28C18.1601 6.848 17.1041 6.632 15.9201 6.632C14.8001 6.632 13.7681 6.856 12.8241 7.304C11.8961 7.736 11.0801 8.424 10.3761 9.368C9.68808 10.296 9.15208 11.504 8.76808 12.992C8.38408 14.464 8.19208 16.248 8.19208 18.344C8.19208 21.24 8.42408 23.544 8.88808 25.256C9.36808 26.968 10.0881 28.2 11.0481 28.952C12.0081 29.688 13.2241 30.056 14.6961 30.056C15.4801 30.056 16.2161 29.968 16.9041 29.792C17.5921 29.6 18.2321 29.352 18.8241 29.048V21.44H14.6481L13.8801 15.92H26.2641V32.456C24.6001 33.48 22.8081 34.296 20.8881 34.904C18.9841 35.512 16.8961 35.816 14.6241 35.816Z" fill="#F1F1F1"/>
<path d="M53.8693 1.736L55.7413 35H48.8773L48.4693 20.768C48.4373 19.44 48.4213 18.256 48.4213 17.216C48.4373 16.176 48.4613 15.2 48.4933 14.288C48.5253 13.36 48.5733 12.432 48.6373 11.504C48.7173 10.56 48.7973 9.536 48.8773 8.432L45.1333 29.336H39.1813L35.1493 8.432C35.2453 9.488 35.3253 10.488 35.3893 11.432C35.4693 12.36 35.5253 13.296 35.5573 14.24C35.5893 15.184 35.6133 16.2 35.6293 17.288C35.6453 18.36 35.6373 19.56 35.6053 20.888L35.3653 35H28.6213L30.4933 1.736H38.5813L42.2773 23.24L45.7813 1.736H53.8693Z" fill="#F1F1F1"/>
</svg>
