<svg width="76" height="79" viewBox="0 0 76 79" fill="none" xmlns="http://www.w3.org/2000/svg">
<g clip-path="url(#clip0_8_41)">
<path d="M25.4202 60.8919C25.4202 61.1984 25.0677 61.4435 24.6234 61.4435C24.1177 61.4895 23.7653 61.2443 23.7653 60.8919C23.7653 60.5854 24.1177 60.3403 24.5621 60.3403C25.0218 60.2943 25.4202 60.5395 25.4202 60.8919ZM20.6548 60.2024C20.5476 60.5088 20.854 60.8613 21.3137 60.9532C21.7121 61.1064 22.1718 60.9532 22.2637 60.6467C22.3556 60.3403 22.0645 59.9879 21.6048 59.85C21.2065 59.7427 20.7621 59.8959 20.6548 60.2024ZM27.4274 59.9419C26.9831 60.0492 26.6766 60.3403 26.7226 60.6927C26.7685 60.9992 27.1669 61.1984 27.6266 61.0911C28.071 60.9838 28.3774 60.6927 28.3315 60.3863C28.2855 60.0951 27.8718 59.8959 27.4274 59.9419ZM37.5097 1.22577C16.2573 1.22577 0 17.3604 0 38.6129C0 55.6056 10.6952 70.1467 25.9718 75.2645C27.9331 75.6169 28.6226 74.4064 28.6226 73.4104C28.6226 72.4604 28.5766 67.2201 28.5766 64.0024C28.5766 64.0024 17.8508 66.3008 15.5984 59.4363C15.5984 59.4363 13.8516 54.9774 11.3387 53.8282C11.3387 53.8282 7.82984 51.4225 11.5839 51.4685C11.5839 51.4685 15.3992 51.775 17.4984 55.4217C20.854 61.3363 26.4774 59.6354 28.6686 58.6242C29.021 56.1725 30.0169 54.4717 31.1202 53.4604C22.5548 52.5104 13.9129 51.2693 13.9129 36.529C13.9129 32.3153 15.0774 30.2008 17.529 27.504C17.1306 26.508 15.8282 22.4016 17.9274 17.1C21.1298 16.104 28.5 21.2371 28.5 21.2371C31.5645 20.379 34.8589 19.9346 38.1226 19.9346C41.3863 19.9346 44.6806 20.379 47.7452 21.2371C47.7452 21.2371 55.1153 16.0887 58.3177 17.1C60.4169 22.4169 59.1145 26.508 58.7161 27.504C61.1677 30.2161 62.6694 32.3306 62.6694 36.529C62.6694 51.3153 53.6444 52.4951 45.079 53.4604C46.4887 54.6709 47.6839 56.9693 47.6839 60.5701C47.6839 65.7338 47.6379 72.1233 47.6379 73.3798C47.6379 74.3758 48.3427 75.5863 50.2887 75.2338C65.6113 70.1467 76 55.6056 76 38.6129C76 17.3604 58.7621 1.22577 37.5097 1.22577ZM14.8935 54.0733C14.6944 54.2266 14.7403 54.579 15.0008 54.8701C15.246 55.1153 15.5984 55.2225 15.7976 55.0233C15.9968 54.8701 15.9508 54.5177 15.6903 54.2266C15.4452 53.9814 15.0927 53.8742 14.8935 54.0733ZM13.2387 52.8322C13.1315 53.0314 13.2847 53.2766 13.5911 53.4298C13.8363 53.583 14.1427 53.5371 14.25 53.3225C14.3573 53.1234 14.204 52.8782 13.8976 52.725C13.5911 52.633 13.346 52.679 13.2387 52.8322ZM18.2032 58.2871C17.9581 58.4863 18.05 58.9459 18.4024 59.2371C18.7548 59.5895 19.1992 59.6354 19.3984 59.3903C19.5976 59.1911 19.5056 58.7314 19.1992 58.4403C18.8621 58.0879 18.4024 58.0419 18.2032 58.2871ZM16.4565 56.0346C16.2113 56.1879 16.2113 56.5863 16.4565 56.9387C16.7016 57.2911 17.1153 57.4443 17.3145 57.2911C17.5597 57.0919 17.5597 56.6935 17.3145 56.3411C17.1 55.9887 16.7016 55.8354 16.4565 56.0346Z" fill="black"/>
</g>
<defs>
<clipPath id="clip0_8_41">
<rect width="76" height="78.4516" fill="white"/>
</clipPath>
</defs>
</svg>
