<svg width="78" height="78" viewBox="0 0 78 78" fill="none" xmlns="http://www.w3.org/2000/svg">
<path d="M78 39C78 60.5391 60.5391 78 39 78C17.4609 78 0 60.5391 0 39C0 17.4609 17.4609 0 39 0C60.5391 0 78 17.4609 78 39Z" fill="#2D0F71"/>
<path d="M20.6518 30.15H27.6518V52H20.6518V30.15ZM20.5018 22.4C20.5018 21.3667 20.9018 20.5167 21.7018 19.85C22.5351 19.1833 23.4184 18.85 24.3518 18.85C25.2851 18.85 26.1351 19.1833 26.9018 19.85C27.7018 20.5167 28.1018 21.3667 28.1018 22.4C28.1018 23.4333 27.7018 24.2833 26.9018 24.95C26.1351 25.5833 25.2851 25.9 24.3518 25.9C23.4184 25.9 22.5351 25.5833 21.7018 24.95C20.9018 24.2833 20.5018 23.4333 20.5018 22.4Z" fill="#F5F5F5"/>
<path d="M41.2107 30.15L41.7607 34.05L41.6607 33.7C42.4274 32.3333 43.5107 31.2333 44.9107 30.4C46.3107 29.5333 48.0274 29.1 50.0607 29.1C52.1274 29.1 53.8441 29.7167 55.2107 30.95C56.6107 32.15 57.3274 33.7167 57.3607 35.65V52H50.3607V38.25C50.3274 37.2833 50.0607 36.5167 49.5607 35.95C49.0941 35.35 48.2941 35.05 47.1607 35.05C46.0941 35.05 45.1607 35.4 44.3607 36.1C43.5607 36.8 42.9441 37.75 42.5107 38.95C42.0774 40.15 41.8607 41.5333 41.8607 43.1V52H34.8607V30.15H41.2107Z" fill="#F5F5F5"/>
</svg>
