<svg width="56" height="36" viewBox="0 0 56 36" fill="none" xmlns="http://www.w3.org/2000/svg">
<path d="M14.624 35.816C11.472 35.816 8.81602 35.152 6.65602 33.824C4.49602 32.48 2.85602 30.512 1.73602 27.92C0.632017 25.312 0.0800171 22.104 0.0800171 18.296C0.0800171 15.464 0.472017 12.968 1.25602 10.808C2.05602 8.632 3.16002 6.816 4.56802 5.36C5.97602 3.888 7.61602 2.776 9.48802 2.024C11.36 1.272 13.376 0.895996 15.536 0.895996C17.968 0.895996 20.016 1.272 21.68 2.024C23.344 2.776 24.824 3.768 26.12 5L21.992 9.272C20.984 8.376 20.016 7.712 19.088 7.28C18.16 6.848 17.104 6.632 15.92 6.632C14.8 6.632 13.768 6.856 12.824 7.304C11.896 7.736 11.08 8.424 10.376 9.368C9.68802 10.296 9.15202 11.504 8.76802 12.992C8.38402 14.464 8.19202 16.248 8.19202 18.344C8.19202 21.24 8.42402 23.544 8.88802 25.256C9.36802 26.968 10.088 28.2 11.048 28.952C12.008 29.688 13.224 30.056 14.696 30.056C15.48 30.056 16.216 29.968 16.904 29.792C17.592 29.6 18.232 29.352 18.824 29.048V21.44H14.648L13.88 15.92H26.264V32.456C24.6 33.48 22.808 34.296 20.888 34.904C18.984 35.512 16.896 35.816 14.624 35.816Z" fill="#2E2E2E"/>
<path d="M53.8693 1.736L55.7413 35H48.8773L48.4693 20.768C48.4373 19.44 48.4213 18.256 48.4213 17.216C48.4373 16.176 48.4613 15.2 48.4933 14.288C48.5253 13.36 48.5733 12.432 48.6373 11.504C48.7173 10.56 48.7973 9.536 48.8773 8.432L45.1333 29.336H39.1813L35.1493 8.432C35.2453 9.488 35.3253 10.488 35.3893 11.432C35.4693 12.36 35.5253 13.296 35.5573 14.24C35.5893 15.184 35.6133 16.2 35.6293 17.288C35.6453 18.36 35.6373 19.56 35.6053 20.888L35.3653 35H28.6213L30.4933 1.736H38.5813L42.2773 23.24L45.7813 1.736H53.8693Z" fill="#2E2E2E"/>
</svg>
