<svg width="78" height="78" viewBox="0 0 78 78" fill="none" xmlns="http://www.w3.org/2000/svg">
<path d="M78 39C78 60.5391 60.5391 78 39 78C17.4609 78 0 60.5391 0 39C0 17.4609 17.4609 0 39 0C60.5391 0 78 17.4609 78 39Z" fill="black"/>
<path d="M22 55C21.2 55 20.5 54.7 19.9 54.1C19.3 53.5 19 52.8 19 52V26C19 25.2 19.3 24.5 19.9 23.9C20.5 23.3 21.2 23 22 23H56C56.8 23 57.5 23.3 58.1 23.9C58.7 24.5 59 25.2 59 26V52C59 52.8 58.7 53.5 58.1 54.1C57.5 54.7 56.8 55 56 55H22ZM56 28.75L39.8 39.35C39.6667 39.4167 39.5417 39.475 39.425 39.525C39.3083 39.575 39.1667 39.6 39 39.6C38.8333 39.6 38.6917 39.575 38.575 39.525C38.4583 39.475 38.3333 39.4167 38.2 39.35L22 28.75V52H56V28.75ZM39 36.9L55.8 26H22.25L39 36.9ZM22 29.1V27.125V27.15V27.1V29.1Z" fill="white"/>
</svg>
